<?xml version="1.0" standalone="no"?>
<!DOCTYPE svg PUBLIC "-//W3C//DTD SVG 20010904//EN"
 "http://www.w3.org/TR/2001/REC-SVG-20010904/DTD/svg10.dtd">
<svg version="1.0" xmlns="http://www.w3.org/2000/svg"
 width="103.000000pt" height="127.000000pt" viewBox="0 0 103.000000 127.000000"
 preserveAspectRatio="xMidYMid meet">

<g transform="translate(0.000000,127.000000) scale(0.100000,-0.100000)"
fill="#d24a4a" stroke="none">
<path d="M450 1141 c-47 -15 -88 -41 -108 -68 -20 -30 -63 -144 -67 -178 -1
-11 -6 -18 -11 -17 -5 2 -8 8 -6 14 4 16 -52 -28 -93 -73 -20 -23 -51 -71 -69
-108 -29 -63 -31 -72 -31 -186 0 -117 1 -122 37 -195 38 -79 86 -136 153 -179
53 -34 112 -61 119 -54 3 3 12 0 21 -7 20 -17 136 -14 212 6 83 21 163 62 175
90 6 13 15 24 20 24 5 0 6 -6 2 -13 -4 -6 -3 -8 1 -4 13 11 15 38 3 31 -5 -3
6 16 25 42 38 54 102 182 94 190 -2 3 -9 -8 -15 -25 -6 -16 -30 -51 -53 -76
-56 -61 -73 -45 -24 23 20 28 44 74 54 102 22 63 41 85 41 50 1 -22 2 -23 11
-7 20 34 0 145 -40 221 -28 55 -50 82 -103 124 -56 45 -70 62 -84 105 -29 87
-59 126 -120 153 -55 24 -98 29 -144 15z m224 -147 c8 -40 -5 -64 -35 -64 -23
0 -23 3 -2 62 19 53 28 54 37 2z m142 -531 c-3 -17 -26 -32 -26 -16 0 8 20 33
26 33 1 0 1 -8 0 -17z m-26 -41 c0 -13 -12 -22 -22 -16 -10 6 -1 24 13 24 5 0
9 -4 9 -8z"/>
</g>
</svg>
